<svg width="25" height="25" viewBox="0 0 25 25" fill="none" xmlns="http://www.w3.org/2000/svg">
<rect width="25" height="25" fill="#E5E5E5"/>
<g id="MacBook Pro - 1">
<rect width="1440" height="4003" transform="translate(-437 -307)" fill="#FAFAFA"/>
<g id="Poster">
<path id="Rectangle 1" d="M-387 -153C-387 -164.046 -378.046 -173 -367 -173H933C944.046 -173 953 -164.046 953 -153V407C953 418.046 944.046 427 933 427H-367C-378.046 427 -387 418.046 -387 407V-153Z" fill="url(#paint0_linear_0_1)"/>
<g id="Group 1">
<path id="fashion" d="M-214.09 3.26758L-224.722 20.8574C-224.833 19.4473 -225.093 17.833 -225.501 16.0146C-225.909 14.1592 -226.596 12.415 -227.561 10.7822C-228.488 9.14941 -229.787 7.77637 -231.457 6.66309C-233.09 5.5127 -235.187 4.9375 -237.747 4.9375C-240.382 4.9375 -242.497 5.45703 -244.093 6.49609C-245.688 7.53516 -246.913 9.09375 -247.767 11.1719C-248.62 13.25 -249.195 15.8291 -249.492 18.9092C-249.789 21.9893 -249.938 25.5703 -249.938 29.6523H-230.455V37.1113H-249.938V94H-268.808V37.1113H-280.497V29.6523H-268.808C-268.808 23.752 -268.177 18.6865 -266.915 14.4561C-265.653 10.2256 -263.742 6.75586 -261.182 4.04688C-258.621 1.30078 -255.411 -0.703125 -251.552 -1.96484C-247.655 -3.26367 -243.109 -3.91309 -237.914 -3.91309C-234.797 -3.91309 -232.014 -3.69043 -229.564 -3.24512C-227.078 -2.83691 -224.889 -2.28027 -222.996 -1.5752C-221.066 -0.907227 -219.378 -0.146484 -217.931 0.707031C-216.483 1.56055 -215.203 2.41406 -214.09 3.26758ZM-158.426 94H-177.24V86.3184C-179.467 89.3613 -182.157 91.625 -185.312 93.1094C-188.429 94.5566 -191.861 95.2803 -195.609 95.2803C-200.508 95.2803 -204.887 94.4082 -208.746 92.6641C-212.605 90.9199 -215.871 88.5449 -218.543 85.5391C-221.215 82.4961 -223.256 78.9336 -224.666 74.8516C-226.076 70.7695 -226.781 66.3906 -226.781 61.7148C-226.781 57.0391 -226.076 52.6602 -224.666 48.5781C-223.256 44.4961 -221.215 40.9521 -218.543 37.9463C-215.871 34.9033 -212.605 32.5098 -208.746 30.7656C-204.887 29.0215 -200.508 28.1494 -195.609 28.1494C-193.123 28.1494 -190.767 28.5205 -188.54 29.2627C-186.276 30.0049 -184.217 31.0625 -182.361 32.4355C-180.469 33.7715 -178.817 35.4043 -177.407 37.334C-175.96 39.2266 -174.828 41.3418 -174.012 43.6797L-165.662 29.708H-158.426V94ZM-177.352 61.7148C-177.352 60.0449 -177.444 58.2822 -177.63 56.4268C-177.778 54.5713 -178.057 52.7344 -178.465 50.916C-178.873 49.0977 -179.448 47.3721 -180.19 45.7393C-180.896 44.0693 -181.823 42.6035 -182.974 41.3418C-184.087 40.043 -185.441 39.0225 -187.037 38.2803C-188.633 37.5381 -190.488 37.167 -192.604 37.167C-194.719 37.167 -196.556 37.5566 -198.114 38.3359C-199.673 39.0781 -201.009 40.0986 -202.122 41.3975C-203.235 42.6592 -204.163 44.125 -204.905 45.7949C-205.61 47.4648 -206.167 49.209 -206.575 51.0273C-206.983 52.8457 -207.28 54.6826 -207.466 56.5381C-207.614 58.3564 -207.688 60.082 -207.688 61.7148C-207.688 63.3477 -207.614 65.0918 -207.466 66.9473C-207.28 68.8027 -206.983 70.6396 -206.575 72.458C-206.167 74.2764 -205.61 76.0205 -204.905 77.6904C-204.163 79.3604 -203.235 80.8447 -202.122 82.1436C-201.009 83.4053 -199.673 84.4258 -198.114 85.2051C-196.556 85.9473 -194.719 86.3184 -192.604 86.3184C-190.674 86.3184 -188.967 85.9287 -187.482 85.1494C-185.961 84.333 -184.644 83.2568 -183.53 81.9209C-182.38 80.585 -181.415 79.0635 -180.636 77.3564C-179.856 75.6494 -179.226 73.8867 -178.743 72.0684C-178.261 70.25 -177.908 68.4502 -177.686 66.6689C-177.463 64.8506 -177.352 63.1992 -177.352 61.7148ZM-87.3428 73.46C-87.3428 76.2803 -87.751 78.7852 -88.5674 80.9746C-89.3838 83.1641 -90.4971 85.0752 -91.9072 86.708C-93.3174 88.3037 -94.9873 89.6582 -96.917 90.7715C-98.8467 91.8477 -100.925 92.7197 -103.151 93.3877C-105.341 94.0557 -107.642 94.5381 -110.054 94.835C-112.466 95.1318 -114.859 95.2803 -117.234 95.2803C-120.426 95.2803 -123.246 95.0762 -125.695 94.668C-128.145 94.2598 -130.482 93.6104 -132.709 92.7197C-134.936 91.792 -137.162 90.6045 -139.389 89.1572C-141.578 87.71 -144.027 85.9473 -146.736 83.8691L-135.771 74.9072C-134.769 76.7998 -133.451 78.5254 -131.818 80.084C-130.148 81.6055 -128.423 82.9229 -126.642 84.0361C-124.86 85.1494 -123.135 86.0029 -121.465 86.5967C-119.795 87.1904 -118.44 87.4873 -117.401 87.4873C-116.548 87.4873 -115.583 87.4688 -114.507 87.4316C-113.431 87.3574 -112.336 87.2461 -111.223 87.0977C-110.109 86.9121 -109.015 86.6523 -107.938 86.3184C-106.862 85.9844 -105.916 85.5391 -105.1 84.9824C-104.246 84.3887 -103.578 83.665 -103.096 82.8115C-102.576 81.9209 -102.316 80.8633 -102.316 79.6387C-102.316 78.377 -102.65 77.2822 -103.318 76.3545C-103.949 75.3896 -104.784 74.5547 -105.823 73.8496C-106.862 73.1445 -108.05 72.5508 -109.386 72.0684C-110.722 71.5859 -112.076 71.1592 -113.449 70.7881C-114.785 70.417 -116.084 70.1016 -117.346 69.8418C-118.607 69.5449 -119.702 69.2666 -120.63 69.0068C-122.337 68.5244 -124.137 68.042 -126.029 67.5596C-127.922 67.04 -129.796 66.4648 -131.651 65.834C-133.507 65.166 -135.288 64.3867 -136.995 63.4961C-138.665 62.6055 -140.149 61.5479 -141.448 60.3232C-142.71 59.0615 -143.73 57.5957 -144.51 55.9258C-145.252 54.2188 -145.623 52.2334 -145.623 49.9697C-145.623 45.8135 -144.807 42.3438 -143.174 39.5605C-141.504 36.7402 -139.314 34.4951 -136.605 32.8252C-133.896 31.1182 -130.816 29.9121 -127.365 29.207C-123.914 28.502 -120.407 28.1494 -116.845 28.1494C-114.396 28.1494 -111.816 28.4092 -109.107 28.9287C-106.398 29.4111 -103.764 30.1533 -101.203 31.1553C-98.6426 32.1201 -96.249 33.3076 -94.0225 34.7178C-91.7959 36.1279 -89.9404 37.7422 -88.4561 39.5605L-99.4219 48.5781C-100.238 46.3516 -101.314 44.4404 -102.65 42.8447C-103.949 41.249 -105.378 39.9502 -106.937 38.9482C-108.458 37.9092 -110.035 37.1484 -111.668 36.666C-113.264 36.1836 -114.748 35.9424 -116.121 35.9424C-117.457 35.9424 -118.96 35.998 -120.63 36.1094C-122.3 36.2207 -123.877 36.5361 -125.361 37.0557C-126.809 37.5752 -128.052 38.373 -129.091 39.4492C-130.093 40.4883 -130.594 41.9355 -130.594 43.791C-130.594 45.127 -130.297 46.2773 -129.703 47.2422C-129.072 48.1699 -128.256 48.9863 -127.254 49.6914C-126.252 50.3594 -125.12 50.9346 -123.858 51.417C-122.56 51.8623 -121.242 52.2705 -119.906 52.6416C-118.57 52.9756 -117.271 53.2725 -116.01 53.5322C-114.748 53.792 -113.616 54.0703 -112.614 54.3672C-110.907 54.8496 -109.107 55.3506 -107.215 55.8701C-105.285 56.3525 -103.393 56.9277 -101.537 57.5957C-99.6816 58.2266 -97.9004 58.9873 -96.1934 59.8779C-94.4492 60.7314 -92.9277 61.7891 -91.6289 63.0508C-90.3301 64.3125 -89.291 65.7969 -88.5117 67.5039C-87.7324 69.1738 -87.3428 71.1592 -87.3428 73.46ZM-9.69141 57.1504C-9.69141 61.4922 -10.2295 66.0195 -11.3057 70.7324C-12.3447 75.4453 -13.8105 80.0654 -15.7031 84.5928C-17.5957 89.1201 -19.8594 93.3691 -22.4941 97.3398C-25.1289 101.348 -28.0234 104.799 -31.1777 107.693L-38.2471 103.853C-37.2451 101.997 -36.2988 99.9189 -35.4082 97.6182C-34.5176 95.3174 -33.7197 92.8867 -33.0146 90.3262C-32.2725 87.7285 -31.623 85.0566 -31.0664 82.3105C-30.4727 79.5645 -29.9902 76.8555 -29.6191 74.1836C-29.2109 71.4746 -28.9141 68.8584 -28.7285 66.335C-28.5059 63.7744 -28.3945 61.3994 -28.3945 59.21C-28.3945 57.7627 -28.4502 56.2227 -28.5615 54.5898C-28.6729 52.9199 -28.9141 51.2686 -29.2852 49.6357C-29.6191 47.9658 -30.083 46.3701 -30.6768 44.8486C-31.2705 43.3271 -32.0684 41.9912 -33.0703 40.8408C-34.0352 39.6904 -35.2227 38.7627 -36.6328 38.0576C-38.0059 37.3525 -39.6387 37 -41.5312 37C-43.3867 37 -45.0381 37.4268 -46.4854 38.2803C-47.9326 39.0967 -49.2129 40.1914 -50.3262 41.5645C-51.4395 42.9004 -52.4043 44.4404 -53.2207 46.1846C-54 47.9287 -54.6494 49.7285 -55.1689 51.584C-55.6514 53.4023 -56.0039 55.2021 -56.2266 56.9834C-56.4492 58.7646 -56.5605 60.3604 -56.5605 61.7705V94H-75.4307V6.05078H-56.6162V39.1709C-54.2041 35.6455 -51.2539 32.9365 -47.7656 31.0439C-44.2402 29.1143 -40.3438 28.1494 -36.0762 28.1494C-31.623 28.1494 -27.7451 28.873 -24.4424 30.3203C-21.1396 31.7676 -18.3936 33.79 -16.2041 36.3877C-14.0146 38.9482 -12.3818 42.0098 -11.3057 45.5723C-10.2295 49.0977 -9.69141 52.957 -9.69141 57.1504ZM22.4824 14.1777C22.4824 15.5879 22.2041 16.9238 21.6475 18.1855C21.1279 19.4473 20.4043 20.542 19.4766 21.4697C18.5488 22.3975 17.4541 23.1396 16.1924 23.6963C14.9307 24.2158 13.5947 24.4756 12.1846 24.4756C10.7744 24.4756 9.43848 24.2158 8.17676 23.6963C6.95215 23.1396 5.87598 22.3975 4.94824 21.4697C4.02051 20.542 3.27832 19.4473 2.72168 18.1855C2.20215 16.9238 1.94238 15.5879 1.94238 14.1777C1.94238 12.7676 2.20215 11.4502 2.72168 10.2256C3.27832 8.96387 4.02051 7.86914 4.94824 6.94141C5.87598 6.01367 6.95215 5.29004 8.17676 4.77051C9.43848 4.21387 10.7744 3.93555 12.1846 3.93555C13.5947 3.93555 14.9307 4.21387 16.1924 4.77051C17.4541 5.29004 18.5488 6.01367 19.4766 6.94141C20.4043 7.86914 21.1279 8.96387 21.6475 10.2256C22.2041 11.4502 22.4824 12.7676 22.4824 14.1777ZM21.6475 94H2.77734V29.7637H21.6475V94ZM105.366 61.7148C105.366 65.0547 104.921 68.1904 104.03 71.1221C103.14 74.0537 101.896 76.7627 100.301 79.249C98.7422 81.7354 96.8496 83.9805 94.623 85.9844C92.3965 87.9512 89.9473 89.6211 87.2754 90.9941C84.6406 92.3672 81.8018 93.4248 78.7588 94.167C75.7529 94.9092 72.6543 95.2803 69.4629 95.2803C66.2715 95.2803 63.1729 94.9092 60.167 94.167C57.1611 93.4248 54.3223 92.3672 51.6504 90.9941C49.0156 89.6211 46.585 87.9512 44.3584 85.9844C42.1318 83.9805 40.2207 81.7354 38.625 79.249C37.0664 76.7627 35.8418 74.0537 34.9512 71.1221C34.0605 68.1533 33.6152 65.0176 33.6152 61.7148C33.6152 58.4121 34.0605 55.2949 34.9512 52.3633C35.8418 49.3945 37.0664 46.667 38.625 44.1807C40.2207 41.6943 42.1318 39.4678 44.3584 37.501C46.585 35.4971 49.0156 33.8086 51.6504 32.4355C54.3223 31.0625 57.1611 30.0049 60.167 29.2627C63.1729 28.5205 66.2715 28.1494 69.4629 28.1494C72.6543 28.1494 75.7529 28.5205 78.7588 29.2627C81.8018 30.0049 84.6406 31.0625 87.2754 32.4355C89.9473 33.8086 92.3965 35.4971 94.623 37.501C96.8496 39.4678 98.7422 41.6943 100.301 44.1807C101.896 46.667 103.14 49.3945 104.03 52.3633C104.921 55.2949 105.366 58.4121 105.366 61.7148ZM86.2178 61.7148C86.2178 59.9336 86.1064 58.0596 85.8838 56.0928C85.6982 54.0889 85.3643 52.1406 84.8818 50.248C84.3994 48.3184 83.7314 46.4814 82.8779 44.7373C82.0615 42.9561 81.041 41.416 79.8164 40.1172C78.5918 38.7812 77.126 37.7236 75.4189 36.9443C73.7119 36.1279 71.7266 35.7197 69.4629 35.7197C67.3105 35.7197 65.3994 36.1279 63.7295 36.9443C62.0596 37.7607 60.5938 38.8555 59.332 40.2285C58.1074 41.5645 57.0684 43.123 56.2148 44.9043C55.3984 46.6855 54.7305 48.541 54.2109 50.4707C53.6914 52.3633 53.3203 54.293 53.0977 56.2598C52.875 58.1895 52.7637 60.0078 52.7637 61.7148C52.7637 63.4219 52.875 65.2588 53.0977 67.2256C53.3203 69.1553 53.6914 71.085 54.2109 73.0146C54.7305 74.9443 55.3984 76.7998 56.2148 78.5811C57.0684 80.3252 58.1074 81.8838 59.332 83.2568C60.5938 84.5928 62.0596 85.6689 63.7295 86.4854C65.3994 87.3018 67.3105 87.71 69.4629 87.71C71.6895 87.71 73.6562 87.3203 75.3633 86.541C77.0703 85.7246 78.5361 84.6484 79.7607 83.3125C81.0225 81.9766 82.0615 80.4365 82.8779 78.6924C83.6943 76.9482 84.3438 75.1113 84.8262 73.1816C85.3457 71.252 85.6982 69.3037 85.8838 67.3369C86.1064 65.3701 86.2178 63.4961 86.2178 61.7148ZM183.018 57.1504C183.018 61.4922 182.479 66.0195 181.403 70.7324C180.364 75.4453 178.898 80.0654 177.006 84.5928C175.113 89.1201 172.85 93.3691 170.215 97.3398C167.58 101.348 164.686 104.799 161.531 107.693L154.462 103.853C155.464 101.997 156.41 99.9189 157.301 97.6182C158.191 95.3174 158.989 92.8867 159.694 90.3262C160.437 87.7285 161.086 85.0566 161.643 82.3105C162.236 79.5645 162.719 76.8555 163.09 74.1836C163.498 71.4746 163.795 68.8584 163.98 66.335C164.203 63.7744 164.314 61.3994 164.314 59.21C164.314 57.7627 164.259 56.2227 164.147 54.5898C164.036 52.9199 163.795 51.2686 163.424 49.6357C163.09 47.9658 162.626 46.3701 162.032 44.8486C161.438 43.3271 160.641 41.9912 159.639 40.8408C158.674 39.6904 157.486 38.7627 156.076 38.0576C154.703 37.3525 153.07 37 151.178 37C149.322 37 147.671 37.4268 146.224 38.2803C144.776 39.0967 143.496 40.1914 142.383 41.5645C141.27 42.9004 140.305 44.4404 139.488 46.1846C138.709 47.9287 138.06 49.7285 137.54 51.584C137.058 53.4023 136.705 55.2021 136.482 56.9834C136.26 58.7646 136.148 60.3604 136.148 61.7705V94H117.278V29.708H124.515L133.143 44.6816C134.182 42.1953 135.48 39.9316 137.039 37.8906C138.598 35.8496 140.36 34.1055 142.327 32.6582C144.294 31.2109 146.465 30.0977 148.84 29.3184C151.252 28.5391 153.85 28.1494 156.633 28.1494C161.086 28.1494 164.964 28.873 168.267 30.3203C171.569 31.7676 174.315 33.79 176.505 36.3877C178.694 38.9482 180.327 42.0098 181.403 45.5723C182.479 49.0977 183.018 52.957 183.018 57.1504Z" fill="black"/>
</g>
<g id="Ellipse 1" filter="url(#filter0_i_0_1)">
<circle cx="12.5" cy="12.5" r="12.5" fill="#FF5E3A"/>
</g>
</g>
</g>
<defs>
<filter id="filter0_i_0_1" x="0" y="0" width="25" height="29" filterUnits="userSpaceOnUse" color-interpolation-filters="sRGB">
<feFlood flood-opacity="0" result="BackgroundImageFix"/>
<feBlend mode="normal" in="SourceGraphic" in2="BackgroundImageFix" result="shape"/>
<feColorMatrix in="SourceAlpha" type="matrix" values="0 0 0 0 0 0 0 0 0 0 0 0 0 0 0 0 0 0 127 0" result="hardAlpha"/>
<feOffset dy="4"/>
<feGaussianBlur stdDeviation="2"/>
<feComposite in2="hardAlpha" operator="arithmetic" k2="-1" k3="1"/>
<feColorMatrix type="matrix" values="0 0 0 0 1 0 0 0 0 1 0 0 0 0 1 0 0 0 0.75 0"/>
<feBlend mode="normal" in2="shape" result="effect1_innerShadow_0_1"/>
</filter>
<linearGradient id="paint0_linear_0_1" x1="-387" y1="127" x2="953" y2="127" gradientUnits="userSpaceOnUse">
<stop stop-color="#FCCB90" stop-opacity="0.44"/>
<stop offset="1" stop-color="#FF9A9E" stop-opacity="0.38"/>
</linearGradient>
</defs>
</svg>
